<svg xmlns="http://www.w3.org/2000/svg" width="512" height="512" style="shape-rendering:geometricPrecision;text-rendering:geometricPrecision;image-rendering:optimizeQuality;fill-rule:evenodd;clip-rule:evenodd"><path style="opacity:.999" fill="#fefefe" d="M40.5-.5h430c21.333 6 35 19.667 41 41v430c-6 21.333-19.667 35-41 41h-430c-21.333-6-35-19.667-41-41v-430c6-21.333 19.667-35 41-41z"/><path style="opacity:1" fill="#03aa55" d="M185.5 123.5c.543-.06.876-.393 1-1-3.48-1.306-6.813-1.306-10 0-26.03-.231-50.364 5.936-73 18.5a141.657 141.657 0 0 0-22 18c-6.548 5.354-12.048 4.521-16.5-2.5-6.655-14.827-5.655-29.161 3-43C78.32 99.916 91.487 90.083 107.5 84c51.387-19.632 104.387-27.298 159-23 4.219 2.552 7.386 6.052 9.5 10.5 1.554 17.66-2.779 33.66-13 48a1144.135 1144.135 0 0 1-27.5 107c-.543.06-.876.393-1 1 22.99 1 45.99 1.333 69 1h42a734.393 734.393 0 0 1 35.5-117c9.402-26.332 25.235-47.832 47.5-64.5 5.11-3.73 10.777-5.398 17-5 2.152 2.469 3.652 5.302 4.5 8.5a327.064 327.064 0 0 1-1 44 26239.41 26239.41 0 0 1-35 208 823.174 823.174 0 0 0-13 147c-.919 6.923-4.752 11.423-11.5 13.5a240.38 240.38 0 0 1-31 0c-25.784-3.989-39.284-19.156-40.5-45.5a433.262 433.262 0 0 1 6-87 1018.49 1018.49 0 0 0 7.5-44 1655.824 1655.824 0 0 0-113-3 1382.648 1382.648 0 0 0-20.5 98 784.498 784.498 0 0 0-6 65c-5.781 11.092-14.947 17.592-27.5 19.5-13.491 3.233-27.158 4.233-41 3-7.652-3.242-11.485-9.076-11.5-17.5-3.259-33.266-1.592-66.266 5-99a2787.265 2787.265 0 0 0 12.5-59 413.313 413.313 0 0 1-53 4.5c-2.894-2.909-3.727-6.409-2.5-10.5 5.263-11.935 13.43-21.435 24.5-28.5a193.206 193.206 0 0 1 46.5-20.5 940.203 940.203 0 0 1 40.5-115z"/><path style="opacity:1" fill="#72cfa0" d="M176.5 122.5c3.187-1.306 6.52-1.306 10 0-.124.607-.457.94-1 1-2.787-.977-5.787-1.31-9-1z"/><path style="opacity:1" fill="#56c58c" d="m235.5 226.5 68 2c-23.01.333-46.01 0-69-1 .124-.607.457-.94 1-1z"/></svg>
