<?xml version="1.0" encoding="UTF-8"?>
<!DOCTYPE svg PUBLIC "-//W3C//DTD SVG 1.1//EN" "http://www.w3.org/Graphics/SVG/1.1/DTD/svg11.dtd">
<svg xmlns="http://www.w3.org/2000/svg" version="1.1" width="512px" height="512px" style="shape-rendering:geometricPrecision; text-rendering:geometricPrecision; image-rendering:optimizeQuality; fill-rule:evenodd; clip-rule:evenodd" xmlns:xlink="http://www.w3.org/1999/xlink">
<g><path style="opacity:0.999" fill="#fefefe" d="M 40.5,-0.5 C 183.833,-0.5 327.167,-0.5 470.5,-0.5C 491.833,5.5 505.5,19.1667 511.5,40.5C 511.5,183.833 511.5,327.167 511.5,470.5C 505.5,491.833 491.833,505.5 470.5,511.5C 327.167,511.5 183.833,511.5 40.5,511.5C 19.1667,505.5 5.5,491.833 -0.5,470.5C -0.5,327.167 -0.5,183.833 -0.5,40.5C 5.5,19.1667 19.1667,5.5 40.5,-0.5 Z"/></g>
<g><path style="opacity:1" fill="#03aa55" d="M 185.5,123.5 C 186.043,123.44 186.376,123.107 186.5,122.5C 183.02,121.194 179.687,121.194 176.5,122.5C 150.47,122.269 126.136,128.436 103.5,141C 95.5856,146.244 88.2523,152.244 81.5,159C 74.9516,164.354 69.4516,163.521 65,156.5C 58.3454,141.673 59.3454,127.339 68,113.5C 78.3204,99.9162 91.487,90.0829 107.5,84C 158.887,64.3682 211.887,56.7015 266.5,61C 270.719,63.552 273.886,67.052 276,71.5C 277.554,89.1598 273.221,105.16 263,119.5C 255.554,155.619 246.387,191.286 235.5,226.5C 234.957,226.56 234.624,226.893 234.5,227.5C 257.49,228.5 280.49,228.833 303.5,228.5C 317.5,228.5 331.5,228.5 345.5,228.5C 354.079,188.521 365.912,149.521 381,111.5C 390.402,85.1679 406.235,63.6679 428.5,47C 433.61,43.2691 439.277,41.6025 445.5,42C 447.652,44.4689 449.152,47.3022 450,50.5C 450.655,65.186 450.321,79.8527 449,94.5C 437.614,163.869 425.947,233.203 414,302.5C 405.266,351.11 400.932,400.11 401,449.5C 400.081,456.423 396.248,460.923 389.5,463C 379.167,463.667 368.833,463.667 358.5,463C 332.716,459.011 319.216,443.844 318,417.5C 317.073,388.313 319.073,359.313 324,330.5C 326.823,315.879 329.323,301.212 331.5,286.5C 293.871,284.214 256.204,283.214 218.5,283.5C 210.489,315.895 203.655,348.561 198,381.5C 195.096,403.107 193.096,424.774 192,446.5C 186.219,457.592 177.053,464.092 164.5,466C 151.009,469.233 137.342,470.233 123.5,469C 115.848,465.758 112.015,459.924 112,451.5C 108.741,418.234 110.408,385.234 117,352.5C 121.383,332.861 125.55,313.194 129.5,293.5C 111.918,296.139 94.251,297.639 76.5,298C 73.6061,295.091 72.7728,291.591 74,287.5C 79.2633,275.565 87.43,266.065 98.5,259C 113.083,250.126 128.583,243.292 145,238.5C 156.034,199.228 169.534,160.894 185.5,123.5 Z"/></g>
<g><path style="opacity:1" fill="#72cfa0" d="M 176.5,122.5 C 179.687,121.194 183.02,121.194 186.5,122.5C 186.376,123.107 186.043,123.44 185.5,123.5C 182.713,122.523 179.713,122.19 176.5,122.5 Z"/></g>
<g><path style="opacity:1" fill="#56c58c" d="M 235.5,226.5 C 258.167,227.167 280.833,227.833 303.5,228.5C 280.49,228.833 257.49,228.5 234.5,227.5C 234.624,226.893 234.957,226.56 235.5,226.5 Z"/></g>
</svg>
